<svg width="1461" height="703" viewBox="0 0 1461 703" fill="none" xmlns="http://www.w3.org/2000/svg">
<path d="M687.75 46.193C805.449 91.1658 908.333 159.055 1004.85 237.54C1052.75 276.486 1098.1 318.217 1142.97 360.578C1186.59 401.759 1228.55 444.579 1270.7 487.203C1332.04 549.231 1390.78 613.665 1446.34 680.954C1451.24 686.886 1457.84 691.507 1460.84 699.593C1454.78 704.251 1447.85 702.377 1441.51 702.396C1349.61 702.677 1257.7 702.801 1165.8 702.855C1078.86 702.906 991.929 702.687 904.994 703C894.451 703.037 890.287 700.457 889.279 689.014C880.888 593.793 859.247 501.312 830.55 410.308C827.724 401.345 823.955 397.907 814.382 397.966C762.934 398.284 711.48 398.148 660.033 397.643C650.968 397.554 647.144 400.983 646.13 409.426C634.36 507.434 604.998 600.882 572.753 693.621C569.579 702.749 563.623 702.852 556.25 702.847C460.089 702.784 363.928 702.803 267.766 702.81C182.605 702.817 97.4439 702.846 12.2826 702.813C8.21585 702.811 3.89996 703.733 0 701.266C0.473521 694.937 5.57426 692.725 9.06323 689.686C76.5198 630.939 140.776 568.775 202.309 503.966C276.522 425.804 348.453 345.501 406.181 253.835C430.963 214.484 454.063 174.19 464.745 128.182C468.715 111.081 469.936 93.7434 467.691 76.4072C463.93 47.3584 447.306 27.3501 421.991 13.729C415.988 10.4989 408.85 8.94965 402.298 1.44068C502.132 -5.31242 595.81 12.0204 687.75 46.193ZM659.197 91.1655C627.794 67.9463 573.358 43.0807 559.798 51.564C560.343 52.4442 560.737 53.4768 561.453 54.1835C590.646 82.997 612.001 116.819 625.9 155.349C628.247 161.857 632.68 163.447 639.04 163.393C666.305 163.162 693.573 163.283 720.84 163.131C724.192 163.112 727.964 164.16 731.858 160.038C712.211 133.034 687.482 111.362 659.197 91.1655Z" fill="black"/>
</svg>
