<svg width="2048" height="1093" viewBox="0 0 2048 1093" fill="none" xmlns="http://www.w3.org/2000/svg">
<path d="M964.18 71.8193C1129.19 141.741 1273.42 247.293 1408.74 369.319C1475.88 429.871 1539.47 494.753 1602.38 560.615C1663.53 624.641 1722.34 691.216 1781.44 757.486C1867.44 853.926 1949.78 954.104 2027.67 1058.72C2034.54 1067.95 2043.8 1075.13 2048 1087.7C2039.5 1094.95 2029.79 1092.03 2020.9 1092.06C1892.06 1092.5 1763.22 1092.69 1634.38 1092.77C1512.5 1092.85 1390.62 1092.51 1268.74 1093C1253.96 1093.06 1248.12 1089.05 1246.71 1071.25C1234.95 923.209 1204.61 779.423 1164.38 637.933C1160.41 623.998 1155.13 618.652 1141.71 618.744C1069.58 619.238 997.447 619.027 925.322 618.241C912.614 618.103 907.254 623.434 905.832 636.561C889.331 788.94 848.167 934.231 802.961 1078.42C798.512 1092.61 790.162 1092.77 779.826 1092.76C645.014 1092.66 510.203 1092.69 375.391 1092.7C256 1092.72 136.61 1092.76 17.2194 1092.71C11.5181 1092.71 5.46748 1094.14 0 1090.3C0.663846 1080.46 7.81474 1077.02 12.7061 1072.3C107.276 980.962 197.359 884.311 283.624 783.549C387.666 662.025 488.508 537.173 569.439 394.654C604.182 333.472 636.566 270.824 651.541 199.293C657.107 172.704 658.819 145.749 655.672 118.795C650.399 73.6312 627.093 42.523 591.604 21.3454C583.188 16.3233 573.181 13.9146 563.996 2.23991C703.956 -8.25956 835.286 18.6888 964.18 71.8193ZM924.151 141.741C880.125 105.641 803.81 66.9804 784.8 80.1699C785.563 81.5385 786.116 83.1438 787.12 84.2426C828.047 129.041 857.985 181.626 877.47 241.531C880.761 251.65 886.975 254.121 895.892 254.038C934.116 253.679 972.344 253.867 1010.57 253.631C1015.27 253.601 1020.56 255.231 1026.02 248.822C998.473 206.837 963.805 173.142 924.151 141.741Z" fill="white"/>
</svg>
