<svg width="1762" height="1736" viewBox="0 0 1762 1736" fill="none" xmlns="http://www.w3.org/2000/svg">
<path d="M703.567 -320.468C708.829 -343.183 741.171 -343.183 746.433 -320.468L853.827 143.188C857.801 160.345 879.319 166.111 891.339 153.24L1216.17 -194.602C1232.09 -211.642 1260.1 -195.471 1253.3 -173.169L1114.47 282.066C1109.34 298.911 1125.09 314.664 1141.93 309.527L1597.17 170.705C1619.47 163.904 1635.64 191.914 1618.6 207.827L1270.76 532.661C1257.89 544.681 1263.65 566.199 1280.81 570.173L1744.47 677.567C1767.18 682.829 1767.18 715.171 1744.47 720.433L1280.81 827.827C1263.66 831.801 1257.89 853.319 1270.76 865.339L1618.6 1190.17C1635.64 1206.09 1619.47 1234.1 1597.17 1227.3L1141.93 1088.47C1125.09 1083.34 1109.34 1099.09 1114.47 1115.93L1253.3 1571.17C1260.1 1593.47 1232.09 1609.64 1216.17 1592.6L891.339 1244.76C879.319 1231.89 857.801 1237.65 853.827 1254.81L746.433 1718.47C741.171 1741.18 708.829 1741.18 703.567 1718.47L596.173 1254.81C592.199 1237.66 570.681 1231.89 558.662 1244.76L233.827 1592.6C217.914 1609.64 189.904 1593.47 196.705 1571.17L335.527 1115.93C340.664 1099.09 324.912 1083.34 308.066 1088.47L-147.169 1227.3C-169.471 1234.1 -185.642 1206.09 -168.602 1190.17L179.239 865.339C192.111 853.319 186.345 831.801 169.188 827.827L-294.468 720.433C-317.183 715.171 -317.183 682.829 -294.468 677.567L169.188 570.173C186.345 566.199 192.111 544.681 179.24 532.662L-168.602 207.827C-185.642 191.914 -169.471 163.904 -147.169 170.705L308.066 309.527C324.911 314.664 340.664 298.912 335.527 282.066L196.705 -173.169C189.904 -195.471 217.914 -211.642 233.827 -194.602L558.661 153.239C570.681 166.111 592.199 160.345 596.173 143.188L703.567 -320.468Z" fill="#F8D9DD" fill-opacity="0.3"/>
</svg>
