<svg width="664" height="664" viewBox="0 0 664 664" fill="none" xmlns="http://www.w3.org/2000/svg">
<path d="M323.445 23.9368L326.55 10.5282L330.19 11.3713L331.743 4.66708C331.767 4.56614 331.793 4.52557 331.797 4.51961C331.802 4.51253 331.803 4.51141 331.806 4.50922C331.819 4.5001 331.883 4.46303 332 4.46303C332.117 4.46303 332.181 4.50009 332.194 4.50921C332.195 4.50979 332.195 4.51029 332.196 4.51085C332.198 4.5124 332.2 4.51439 332.203 4.51958C332.207 4.52553 332.233 4.5661 332.257 4.66706L333.81 11.3713L337.45 10.5282L340.555 23.9367L336.915 24.7799L340.021 38.1884L343.661 37.3453L346.767 50.7538L343.127 51.597L346.233 65.0055L349.873 64.1624L352.978 77.5709L349.338 78.4141L352.444 91.8226L356.084 90.9795L359.19 104.388L355.55 105.231L358.656 118.64L362.296 117.797L365.401 131.205L361.761 132.048L364.867 145.457L368.507 144.614L371.613 158.022L367.973 158.865L369.526 165.57C370.923 171.603 378.49 173.631 382.717 169.104L387.414 164.075L384.683 161.524L394.077 151.465L396.808 154.015L406.202 143.956L403.471 141.406L412.865 131.347L415.596 133.897L424.99 123.838L422.259 121.287L431.653 111.228L434.384 113.778L443.778 103.719L441.047 101.169L450.441 91.1095L453.171 93.6597L462.565 83.6005L459.835 81.0502L469.228 70.9909L471.959 73.5412L481.353 63.4819L478.622 60.9317L488.016 50.8724L490.747 53.4226L495.444 48.393C495.515 48.3173 495.558 48.2953 495.564 48.2921C495.572 48.2884 495.574 48.2881 495.577 48.2877L495.577 48.2877C495.593 48.286 495.667 48.2863 495.768 48.3447C495.869 48.403 495.907 48.4675 495.913 48.4816C495.915 48.485 495.916 48.4867 495.916 48.4952C495.917 48.5023 495.919 48.5506 495.889 48.6497L493.881 55.2322L497.455 56.3221L493.441 69.4871L489.867 68.3972L485.852 81.5622L489.426 82.6521L485.412 95.8171L481.838 94.7273L477.823 107.892L481.397 108.982L477.382 122.147L473.808 121.057L469.794 134.222L473.368 135.312L469.353 148.477L465.779 147.387L461.765 160.552L465.339 161.642L461.324 174.807L457.75 173.717L453.735 186.882L457.309 187.972L453.295 201.137L449.721 200.047L447.713 206.63C445.907 212.554 451.446 218.093 457.37 216.287L463.953 214.279L462.863 210.705L476.028 206.691L477.118 210.265L490.283 206.25L489.193 202.676L502.358 198.661L503.448 202.235L516.613 198.221L515.523 194.647L528.688 190.632L529.778 194.206L542.943 190.192L541.853 186.618L555.018 182.603L556.108 186.177L569.273 182.162L568.183 178.588L581.348 174.574L582.438 178.148L595.603 174.133L594.513 170.559L607.678 166.545L608.768 170.119L615.35 168.111C615.449 168.081 615.498 168.083 615.505 168.084C615.509 168.084 615.511 168.084 615.513 168.085C615.515 168.085 615.517 168.086 615.518 168.087C615.523 168.089 615.535 168.095 615.549 168.106C615.577 168.127 615.618 168.166 615.655 168.232C615.714 168.333 615.714 168.407 615.712 168.423C615.712 168.426 615.712 168.428 615.709 168.433C615.709 168.434 615.708 168.435 615.708 168.436C615.705 168.442 615.683 168.485 615.607 168.556L610.577 173.253L613.128 175.984L603.068 185.378L600.518 182.647L590.459 192.041L593.009 194.772L582.95 204.165L580.4 201.435L570.34 210.829L572.891 213.559L562.831 222.953L560.281 220.222L550.222 229.616L552.772 232.347L542.713 241.741L540.162 239.01L530.103 248.404L532.653 251.135L522.594 260.529L520.044 257.798L509.985 267.192L512.535 269.923L502.476 279.317L499.925 276.586L494.896 281.283C490.37 285.51 492.397 293.077 498.43 294.474L505.135 296.027L505.978 292.387L519.386 295.493L518.543 299.133L531.952 302.239L532.795 298.599L546.203 301.704L545.36 305.344L558.769 308.45L559.612 304.81L573.021 307.916L572.177 311.556L585.586 314.662L586.429 311.022L599.838 314.127L598.994 317.767L612.403 320.873L613.246 317.233L626.655 320.339L625.812 323.979L639.22 327.085L640.063 323.445L653.472 326.55L652.629 330.19L659.333 331.743C659.434 331.767 659.474 331.793 659.48 331.797C659.487 331.802 659.489 331.803 659.491 331.806C659.5 331.819 659.537 331.883 659.537 332C659.537 332.117 659.5 332.182 659.491 332.194C659.49 332.195 659.49 332.195 659.489 332.196C659.487 332.198 659.485 332.2 659.48 332.203C659.474 332.207 659.434 332.233 659.333 332.257L652.629 333.81L653.472 337.45L640.063 340.555L639.22 336.915L625.812 340.021L626.655 343.661L613.246 346.767L612.403 343.127L598.994 346.233L599.838 349.873L586.429 352.978L585.586 349.338L572.177 352.444L573.021 356.084L559.612 359.19L558.769 355.55L545.36 358.656L546.203 362.296L532.795 365.401L531.952 361.761L518.543 364.867L519.386 368.507L505.978 371.613L505.135 367.973L498.43 369.526C492.397 370.923 490.37 378.49 494.896 382.717L499.925 387.414L502.476 384.683L512.535 394.077L509.985 396.808L520.044 406.202L522.594 403.471L532.653 412.865L530.103 415.596L540.162 424.99L542.713 422.259L552.772 431.653L550.222 434.384L560.281 443.778L562.831 441.047L572.891 450.441L570.34 453.171L580.4 462.565L582.95 459.835L593.009 469.228L590.459 471.959L600.518 481.353L603.068 478.622L613.128 488.016L610.577 490.747L615.607 495.444C615.683 495.515 615.705 495.558 615.708 495.564C615.712 495.572 615.712 495.574 615.712 495.577C615.713 495.586 615.714 495.612 615.704 495.651C615.696 495.683 615.682 495.723 615.655 495.768C615.597 495.869 615.533 495.907 615.518 495.913C615.517 495.914 615.516 495.914 615.514 495.915C615.512 495.915 615.51 495.916 615.505 495.916C615.498 495.917 615.449 495.919 615.35 495.889L608.768 493.881L607.678 497.455L594.513 493.441L595.603 489.867L582.438 485.852L581.348 489.426L568.183 485.412L569.273 481.838L556.108 477.823L555.018 481.397L541.853 477.382L542.943 473.808L529.778 469.794L528.688 473.368L515.523 469.353L516.613 465.779L503.448 461.765L502.358 465.339L489.193 461.324L490.283 457.75L477.118 453.735L476.028 457.309L462.863 453.295L463.953 449.721L457.37 447.713C451.446 445.907 445.907 451.446 447.713 457.37L449.721 463.953L453.295 462.863L457.309 476.028L453.735 477.118L457.75 490.283L461.324 489.193L465.339 502.358L461.765 503.448L465.779 516.613L469.353 515.523L473.368 528.688L469.794 529.778L473.808 542.943L477.382 541.853L481.397 555.018L477.823 556.108L481.838 569.273L485.412 568.183L489.426 581.348L485.852 582.438L489.867 595.603L493.441 594.513L497.456 607.678L493.882 608.768L495.889 615.35C495.919 615.449 495.917 615.498 495.916 615.505C495.916 615.513 495.915 615.515 495.913 615.518C495.907 615.533 495.87 615.597 495.769 615.655C495.667 615.714 495.593 615.714 495.577 615.712C495.576 615.712 495.575 615.712 495.573 615.712C495.571 615.711 495.569 615.71 495.564 615.708C495.558 615.705 495.515 615.683 495.444 615.607L490.747 610.577L488.016 613.128L478.622 603.068L481.353 600.518L471.959 590.459L469.228 593.009L459.835 582.95L462.565 580.4L453.171 570.34L450.441 572.891L441.047 562.831L443.778 560.281L434.384 550.222L431.653 552.772L422.259 542.713L424.99 540.162L415.596 530.103L412.865 532.653L403.471 522.594L406.202 520.044L396.808 509.985L394.077 512.535L384.683 502.476L387.414 499.925L382.717 494.896C378.49 490.37 370.923 492.397 369.526 498.43L367.973 505.135L371.613 505.978L368.507 519.386L364.867 518.543L361.761 531.952L365.401 532.795L362.296 546.203L358.656 545.36L355.55 558.769L359.19 559.612L356.084 573.021L352.444 572.177L349.338 585.586L352.978 586.429L349.873 599.838L346.233 598.994L343.127 612.403L346.767 613.246L343.661 626.655L340.021 625.812L336.915 639.22L340.555 640.063L337.45 653.472L333.81 652.629L332.257 659.333C332.233 659.434 332.207 659.474 332.203 659.48C332.198 659.487 332.197 659.489 332.194 659.491C332.189 659.494 332.178 659.501 332.159 659.509C332.127 659.522 332.074 659.537 332 659.537C331.883 659.537 331.818 659.5 331.806 659.491C331.805 659.49 331.805 659.49 331.804 659.489C331.802 659.487 331.8 659.485 331.797 659.48C331.793 659.474 331.767 659.434 331.743 659.333L330.19 652.629L326.55 653.472L323.445 640.063L327.085 639.22L323.979 625.812L320.339 626.655L317.233 613.246L320.873 612.403L317.767 598.994L314.127 599.838L311.022 586.429L314.662 585.586L311.556 572.177L307.916 573.021L304.81 559.612L308.45 558.769L305.344 545.36L301.704 546.203L298.599 532.795L302.239 531.952L299.133 518.543L295.493 519.386L292.387 505.978L296.027 505.135L294.474 498.43C293.077 492.397 285.51 490.37 281.283 494.896L276.586 499.925L279.317 502.476L269.923 512.535L267.192 509.985L257.798 520.044L260.529 522.594L251.135 532.653L248.404 530.103L239.01 540.162L241.741 542.713L232.347 552.772L229.616 550.222L220.222 560.281L222.953 562.831L213.559 572.891L210.829 570.34L201.435 580.4L204.165 582.95L194.772 593.009L192.041 590.459L182.647 600.518L185.378 603.068L175.984 613.128L173.253 610.577L168.556 615.607C168.485 615.683 168.442 615.705 168.436 615.708C168.428 615.712 168.426 615.712 168.423 615.712C168.407 615.714 168.333 615.714 168.232 615.655C168.131 615.597 168.093 615.533 168.087 615.518C168.085 615.516 168.085 615.514 168.084 615.508C168.084 615.507 168.084 615.506 168.084 615.505C168.083 615.498 168.081 615.449 168.111 615.35L170.119 608.768L166.545 607.678L170.559 594.513L174.133 595.603L178.148 582.438L174.574 581.348L178.588 568.183L182.162 569.273L186.177 556.108L182.603 555.018L186.618 541.853L190.192 542.943L194.206 529.778L190.632 528.688L194.647 515.523L198.221 516.613L202.235 503.448L198.661 502.358L202.676 489.193L206.25 490.283L210.265 477.118L206.691 476.028L210.705 462.863L214.279 463.953L216.287 457.37C218.093 451.446 212.554 445.907 206.63 447.713L200.047 449.721L201.137 453.295L187.972 457.309L186.882 453.735L173.717 457.75L174.807 461.324L161.642 465.339L160.552 461.765L147.387 465.779L148.477 469.353L135.312 473.368L134.222 469.794L121.057 473.808L122.147 477.382L108.982 481.397L107.892 477.823L94.7273 481.838L95.8172 485.412L82.6521 489.426L81.5623 485.852L68.3972 489.867L69.4871 493.441L56.3221 497.455L55.2322 493.881L48.6497 495.889C48.5506 495.919 48.5023 495.917 48.4952 495.916C48.4868 495.916 48.485 495.915 48.4816 495.913C48.4675 495.907 48.403 495.869 48.3447 495.768C48.2863 495.667 48.286 495.593 48.2877 495.577C48.288 495.575 48.2881 495.574 48.2891 495.571C48.2897 495.569 48.2906 495.567 48.2921 495.564C48.2953 495.558 48.3173 495.515 48.393 495.444L53.4226 490.747L50.8724 488.016L60.9317 478.622L63.4819 481.353L73.5412 471.959L70.9909 469.228L81.0502 459.835L83.6004 462.565L93.6597 453.171L91.1095 450.441L101.169 441.047L103.719 443.778L113.778 434.384L111.228 431.653L121.287 422.259L123.838 424.99L133.897 415.596L131.347 412.865L141.406 403.471L143.956 406.202L154.015 396.808L151.465 394.077L161.524 384.683L164.075 387.414L169.104 382.717C173.631 378.49 171.603 370.923 165.57 369.526L158.865 367.973L158.022 371.613L144.614 368.507L145.457 364.867L132.048 361.761L131.205 365.401L117.797 362.296L118.64 358.656L105.231 355.55L104.388 359.19L90.9795 356.084L91.8226 352.444L78.4141 349.338L77.5709 352.978L64.1624 349.873L65.0055 346.233L51.597 343.127L50.7538 346.767L37.3453 343.661L38.1884 340.021L24.7799 336.915L23.9368 340.555L10.5282 337.45L11.3713 333.81L4.6671 332.257C4.56614 332.233 4.52557 332.207 4.51961 332.203C4.51253 332.198 4.51141 332.197 4.50922 332.194C4.5001 332.181 4.46303 332.117 4.46303 332C4.46303 331.883 4.50009 331.819 4.50921 331.806C4.50979 331.805 4.51029 331.805 4.51085 331.804C4.5124 331.802 4.51439 331.8 4.51958 331.797C4.52553 331.793 4.5661 331.767 4.66706 331.743L11.3713 330.19L10.5282 326.55L23.9367 323.445L24.7799 327.085L38.1884 323.979L37.3453 320.339L50.7538 317.233L51.597 320.873L65.0055 317.767L64.1624 314.127L77.5709 311.022L78.4141 314.662L91.8226 311.556L90.9795 307.916L104.388 304.81L105.231 308.45L118.64 305.344L117.797 301.704L131.205 298.599L132.048 302.239L145.457 299.133L144.614 295.493L158.022 292.387L158.865 296.027L165.57 294.474C171.603 293.077 173.631 285.51 169.104 281.283L164.075 276.586L161.524 279.317L151.465 269.923L154.015 267.192L143.956 257.798L141.406 260.529L131.347 251.135L133.897 248.404L123.838 239.01L121.287 241.741L111.228 232.347L113.778 229.616L103.719 220.222L101.169 222.953L91.1095 213.559L93.6597 210.829L83.6004 201.435L81.0502 204.165L70.9909 194.772L73.5412 192.041L63.4819 182.647L60.9317 185.378L50.8724 175.984L53.4226 173.253L48.393 168.556C48.3173 168.485 48.2953 168.442 48.2921 168.436C48.2884 168.428 48.2881 168.426 48.2877 168.423L48.2877 168.423C48.286 168.407 48.2863 168.333 48.3447 168.232C48.403 168.13 48.4675 168.093 48.4816 168.087C48.4829 168.086 48.4839 168.086 48.4852 168.085C48.4866 168.085 48.4883 168.084 48.491 168.084C48.4922 168.084 48.4936 168.084 48.4952 168.084C48.5023 168.083 48.5506 168.081 48.6497 168.111L55.2322 170.119L56.3221 166.545L69.4871 170.559L68.3972 174.133L81.5622 178.148L82.6521 174.574L95.8171 178.588L94.7273 182.162L107.892 186.177L108.982 182.603L122.147 186.618L121.057 190.192L134.222 194.206L135.312 190.632L148.477 194.647L147.387 198.221L160.552 202.235L161.642 198.661L174.807 202.676L173.717 206.25L186.882 210.265L187.972 206.691L201.137 210.705L200.047 214.279L206.63 216.287C212.554 218.093 218.093 212.554 216.287 206.63L214.279 200.047L210.705 201.137L206.691 187.972L210.265 186.882L206.25 173.717L202.676 174.807L198.661 161.642L202.235 160.552L198.221 147.387L194.647 148.477L190.632 135.312L194.206 134.222L190.192 121.057L186.618 122.147L182.603 108.982L186.177 107.892L182.162 94.7273L178.588 95.8172L174.574 82.6521L178.148 81.5623L174.133 68.3972L170.559 69.4871L166.545 56.3221L170.119 55.2322L168.111 48.6497C168.081 48.5506 168.083 48.5023 168.084 48.4952C168.084 48.4921 168.084 48.49 168.085 48.4883C168.085 48.4853 168.086 48.4837 168.087 48.4816C168.093 48.4675 168.131 48.403 168.232 48.3447C168.333 48.2863 168.407 48.286 168.423 48.2877L168.423 48.2877C168.426 48.2881 168.428 48.2884 168.436 48.2921C168.442 48.2953 168.485 48.3173 168.556 48.393L173.253 53.4226L175.984 50.8724L185.378 60.9316L182.647 63.4819L192.041 73.5412L194.772 70.9909L204.165 81.0502L201.435 83.6004L210.829 93.6597L213.559 91.1095L222.953 101.169L220.222 103.719L229.616 113.778L232.347 111.228L241.741 121.287L239.01 123.838L248.404 133.897L251.135 131.347L260.529 141.406L257.798 143.956L267.192 154.015L269.923 151.465L279.317 161.524L276.586 164.075L281.283 169.104C285.51 173.631 293.077 171.603 294.474 165.57L296.027 158.865L292.387 158.022L295.493 144.614L299.133 145.457L302.239 132.048L298.599 131.205L301.704 117.797L305.344 118.64L308.45 105.231L304.81 104.388L307.916 90.9795L311.556 91.8226L314.662 78.4141L311.022 77.5709L314.127 64.1624L317.767 65.0055L320.873 51.597L317.233 50.7538L320.339 37.3453L323.979 38.1884L327.085 24.7799L323.445 23.9368Z" stroke="#EB4C60" stroke-opacity="0.7" stroke-width="7.473" stroke-dasharray="14.95 14.95"/>
</svg>
